<?xml version="1.0" encoding="UTF-8"?>
<!DOCTYPE svg PUBLIC "-//W3C//DTD SVG 1.1//EN" "http://www.w3.org/Graphics/SVG/1.1/DTD/svg11.dtd">
<!-- Creator: CorelDRAW X7 -->
<svg xmlns="http://www.w3.org/2000/svg" xml:space="preserve" width="3.17735in" height="3.32358in" version="1.1" style="shape-rendering:geometricPrecision; text-rendering:geometricPrecision; image-rendering:optimizeQuality; fill-rule:evenodd; clip-rule:evenodd"
viewBox="0 0 3130 3274"
 xmlns:xlink="http://www.w3.org/1999/xlink">
 <defs>
  <style type="text/css">
   <![CDATA[
    .fil3 {fill:#E7E4AC;fill-rule:nonzero}
    .fil0 {fill:#C6474B;fill-rule:nonzero}
    .fil2 {fill:#C3C11B;fill-rule:nonzero}
    .fil1 {fill:#293871;fill-rule:nonzero}
   ]]>
  </style>
 </defs>
 <g id="Layer_x0020_1">
  <metadata id="CorelCorpID_0Corel-Layer"/>
  <path class="fil0" d="M771 2027l308 -226c-58,-35 -115,-71 -172,-107l0 0c-7,-4 -12,-9 -16,-14l0 0c-44,-34 -68,-83 -67,-141l0 0c1,-219 4,-438 7,-657l0 0c1,-70 32,-121 94,-155l0 0c37,-20 74,-40 111,-60l0 0c47,-26 94,-52 142,-78l-34 -393c-121,65 -241,130 -360,197l0 0c-54,30 -109,59 -164,89l0 0c-93,50 -139,126 -140,230l0 0c-4,324 -9,649 -11,973l0 0c0,86 34,158 99,209l0 0c7,8 15,15 25,21l0 0c59,37 119,74 178,112z"/>
  <path class="fil1" d="M1333 2376l-38 -440c-72,-45 -144,-90 -216,-135l-308 226c187,116 375,232 562,349z"/>
  <path class="fil2" d="M2642 1393l-354 69c0,42 -1,85 -1,127l0 0c-1,70 -32,121 -95,155l0 0c-37,20 -74,40 -110,60l0 0c-99,55 -199,109 -298,163l0 0c-46,26 -92,51 -138,76l0 0c-13,7 -25,13 -38,17l0 0c-16,6 -32,9 -49,9l0 0c-7,0 -14,0 -21,-1l0 0c-27,-4 -52,-13 -79,-30l0 0c-54,-34 -109,-68 -164,-102l38 440c26,16 52,33 78,49l0 0c39,24 78,39 116,44l0 0c35,5 70,2 105,-11l0 0c18,-7 37,-15 56,-25l0 0c68,-38 136,-76 204,-113l0 0c148,-80 295,-160 441,-242l0 0c55,-29 110,-59 165,-89l0 0c93,-50 139,-125 140,-230l0 0c1,-122 3,-244 4,-366zm-354 69l354 -69c3,-202 5,-404 6,-607l0 0c1,-43 -8,-82 -25,-118l-330 243c1,7 1,14 1,21l0 0c-1,177 -3,354 -6,530z"/>
  <path class="fil3" d="M1144 196l34 393c52,-29 104,-57 156,-85l0 0c46,-25 92,-51 138,-76l0 0c12,-7 25,-13 37,-17l0 0c24,-9 48,-11 71,-7l0 0c26,3 52,13 78,29l0 0c184,115 369,229 553,344l0 0c5,4 9,8 14,12l0 0c40,30 63,72 68,122l330 -243c-17,-36 -43,-68 -78,-94l0 0c-6,-7 -13,-13 -20,-18l0 0c-272,-171 -546,-339 -819,-510l0 0c-39,-24 -77,-39 -116,-43l0 0c-10,-2 -21,-3 -32,-3l0 0c-24,0 -48,4 -72,14 -19,6 -37,14 -56,24l0 0c-68,38 -136,76 -204,113l0 0c-28,15 -55,30 -82,45z"/>
  <path class="fil1" d="M317 3053l-135 0 0 55 74 0 0 73c0,0 0,0 0,0 -7,3 -15,6 -22,8 0,0 0,1 -1,1 -1,0 -2,0 -2,0 -1,0 -1,0 -2,1 0,0 -1,0 -1,0 -1,0 -2,0 -2,0 -1,1 -1,1 -1,1 -4,0 -8,1 -12,2 -1,0 -1,0 -1,0 -1,0 -2,0 -2,0 -1,0 -1,0 -1,0 -1,0 -2,0 -3,0 0,0 -1,0 -1,0 -1,0 -2,0 -2,0 -1,0 -2,0 -2,0 -1,1 -1,1 -2,1 -1,0 -2,0 -3,0 -36,0 -70,-14 -95,-40 -17,-16 -28,-36 -35,-58 -2,-10 -4,-20 -4,-30 -1,-2 -1,-4 -1,-7 0,-2 0,-4 1,-7 0,-2 0,-4 0,-6 0,-5 1,-10 2,-16 0,0 0,0 1,-1 3,-14 8,-27 16,-40 0,0 1,-1 1,-2 1,-1 2,-3 3,-5 0,0 1,0 1,-1 3,-3 5,-6 7,-9 1,0 1,-1 1,-1 2,-2 5,-4 7,-6 7,-8 14,-14 23,-19 1,-1 2,-1 3,-2 20,-13 44,-19 69,-19 1,0 2,0 3,0 0,0 1,0 1,0 1,0 2,0 2,0 1,0 1,0 2,0 1,0 1,1 2,1 1,0 2,0 3,0 0,0 1,0 1,0 1,0 2,0 2,0 1,0 1,0 2,0 0,0 1,1 2,1 0,0 0,0 1,0 2,0 4,0 7,1 0,0 1,0 1,0 1,0 1,0 2,1 0,0 1,0 1,0 1,0 1,0 2,0 8,2 16,5 24,9l0 0c10,5 19,10 26,17l0 -72 0 0 0 0 0 0c0,0 0,0 0,0 -1,-1 -2,-1 -3,-2 -1,0 -1,0 -1,0 -21,-10 -43,-15 -66,-17 0,0 0,0 0,0 -1,0 -3,0 -4,0 0,0 0,0 -1,0 -1,0 -3,0 -4,0 0,0 -1,0 -1,0 -1,0 -3,0 -4,0 0,0 0,0 0,0 -27,0 -53,5 -76,15 -24,10 -45,24 -63,42 -17,18 -32,39 -42,62 -9,21 -13,44 -15,66 0,4 0,7 0,10 0,7 1,14 1,20 2,19 7,38 14,56 10,24 25,45 42,63 13,13 28,24 44,32 5,4 12,7 19,10 2,1 5,2 8,3 2,0 3,1 5,2 0,0 0,0 1,0 19,7 40,10 62,10 0,0 0,0 0,0 1,0 3,0 4,0 0,0 1,0 1,0 1,0 3,0 4,0 1,0 1,0 1,0 24,-2 48,-7 70,-17 0,0 0,0 0,0 1,-1 3,-1 4,-2 0,0 0,0 0,0 1,0 2,-1 3,-2 0,0 0,0 1,0 0,0 0,0 1,-1 1,0 2,0 2,-1 1,0 1,0 2,-1 1,0 1,0 3,-1 0,0 1,0 1,-1 1,0 1,0 2,-1 1,0 1,-1 2,-1 1,0 1,-1 2,-1 0,0 1,-1 1,-2 1,0 2,0 3,-1 0,0 0,0 1,0l0 0c0,0 0,0 0,0l13 -10 0 -106 0 0 0 -55zm563 203l67 0 -170 -409 -170 409 67 0 33 -84 140 0 33 84zm-150 -139l47 -119 48 119 -95 0zm688 -2c21,-8 35,-20 45,-30 21,-23 32,-55 32,-90 0,-37 -11,-68 -32,-91 -16,-18 -46,-39 -98,-39l-64 0 0 0 -52 0 0 391 62 0 0 -132 44 0 99 132 69 0 -105 -141zm-107 -46l0 -149 54 0c26,0 45,7 57,21 15,16 17,38 17,54 0,15 -2,37 -17,53 -12,13 -31,21 -57,21l-54 0zm528 -204l-67 0 179 408 168 -408 -67 0 -102 258 -111 -258zm649 391l0 -391 -61 0 0 391 61 0zm642 18l0 -409 -62 0 0 251 -245 -270 0 410 61 0 0 -251 246 269z"/>
  <path class="fil1" d="M2048 981c16,0 22,-11 15,-25l-92 -172c-7,-13 -25,-24 -40,-24l-749 0c-15,0 -33,11 -40,25l-88 171c-7,14 0,25 15,25l979 0z"/>
  <path class="fil2" d="M1612 1523c8,-13 7,-34 -1,-47l-297 -460c-8,-13 -27,-23 -42,-23l-197 -2c-15,-1 -20,10 -12,23l424 673c8,13 21,13 28,0l97 -164z"/>
  <path class="fil1" d="M1734 1711c15,0 34,-11 42,-23l174 -285c8,-13 9,-35 2,-48l-90 -175c-7,-13 -19,-14 -27,-1l-45 73c-8,12 -21,34 -28,46l-97 165c-8,13 -20,34 -28,47l-105 177c-7,13 -1,24 14,24l188 0z"/>
 </g>
</svg>
